# xmcd CD database file
#
# Track frame offsets:
#	150
#	43279
#	74663
#	103855
#	124519
#	183559
#	213920
#
# Disc length: 3674 seconds
#
# Revision: 0
# Processed by: cddbd v1.5.2PL0 Copyright (c) Steve Scherf et al.
# Submitted via: CDex 1.70beta2
#
DISCID=6b0e5807
DTITLE=Rent Romus' Jazz on the Line with Chico Freeman - Thundershine
DYEAR=1993
DGENRE=Jazz
TTITLE0=Cameltrot
TTITLE1=Dali Lawnd
TTITLE2=Q'Cee
TTITLE3=Thundershine
TTITLE4=Moons of Neptune
TTITLE5=Double Dig (bonus cut)
TTITLE6=Dali Lawnd (bonus cut)
EXTD=YEAR: 1993
EXTT0=
EXTT1=
EXTT2=
EXTT3=
EXTT4=
EXTT5=
EXTT6=
PLAYORDER=
